<?xml version="1.0" encoding="UTF-8"?>
<!--Generator: Apple Native CoreSVG 326-->
<!DOCTYPE svg
PUBLIC "-//W3C//DTD SVG 1.1//EN"
       "http://www.w3.org/Graphics/SVG/1.1/DTD/svg11.dtd">
<svg version="1.1" xmlns="http://www.w3.org/2000/svg" xmlns:xlink="http://www.w3.org/1999/xlink" viewBox="0 0 14.7891 14.3828">
 <g>
  <rect height="14.3828" opacity="0" width="14.7891" x="0" y="0"/>
  <path d="M2.45312 14.3828L11.9297 14.3828C13.5703 14.3828 14.3828 13.5781 14.3828 11.9688L14.3828 2.42188C14.3828 0.8125 13.5703 0 11.9297 0L2.45312 0C0.820312 0 0 0.8125 0 2.42188L0 11.9688C0 13.5781 0.820312 14.3828 2.45312 14.3828ZM2.46875 13.125C1.6875 13.125 1.25781 12.7109 1.25781 11.8984L1.25781 2.49219C1.25781 1.67969 1.6875 1.25781 2.46875 1.25781L11.9141 1.25781C12.6875 1.25781 13.125 1.67969 13.125 2.49219L13.125 11.8984C13.125 12.7109 12.6875 13.125 11.9141 13.125Z" fill="black" fill-opacity="0.85"/>
  <path d="M6.34375 10.8984C6.60156 10.8984 6.82031 10.7734 6.97656 10.5312L10.5469 4.91406C10.6406 4.75781 10.7344 4.58594 10.7344 4.41406C10.7344 4.0625 10.4219 3.83594 10.1016 3.83594C9.89844 3.83594 9.70312 3.96094 9.55469 4.1875L6.3125 9.39062L4.77344 7.39844C4.58594 7.14844 4.41406 7.08594 4.20312 7.08594C3.85938 7.08594 3.59375 7.35938 3.59375 7.70312C3.59375 7.875 3.66406 8.03906 3.77344 8.1875L5.67969 10.5312C5.875 10.7891 6.08594 10.8984 6.34375 10.8984Z" fill="black" fill-opacity="0.85"/>
 </g>
</svg>
