<?xml version="1.0" encoding="UTF-8"?>
<!--Generator: Apple Native CoreSVG 326-->
<!DOCTYPE svg
PUBLIC "-//W3C//DTD SVG 1.1//EN"
       "http://www.w3.org/Graphics/SVG/1.1/DTD/svg11.dtd">
<svg version="1.1" xmlns="http://www.w3.org/2000/svg" xmlns:xlink="http://www.w3.org/1999/xlink" viewBox="0 0 14.7891 14.3828">
 <g>
  <rect height="14.3828" opacity="0" width="14.7891" x="0" y="0"/>
  <path d="M2.45312 14.3828L11.9297 14.3828C13.5703 14.3828 14.3828 13.5781 14.3828 11.9688L14.3828 2.42188C14.3828 0.8125 13.5703 0 11.9297 0L2.45312 0C0.820312 0 0 0.8125 0 2.42188L0 11.9688C0 13.5781 0.820312 14.3828 2.45312 14.3828ZM2.46875 13.125C1.6875 13.125 1.25781 12.7109 1.25781 11.8984L1.25781 2.49219C1.25781 1.67969 1.6875 1.25781 2.46875 1.25781L11.9141 1.25781C12.6875 1.25781 13.125 1.67969 13.125 2.49219L13.125 11.8984C13.125 12.7109 12.6875 13.125 11.9141 13.125Z" fill="black" fill-opacity="0.85"/>
  <path d="M4.53125 10.4922C4.71094 10.4922 4.86719 10.4219 4.98438 10.2969L7.19531 8.07812L9.42188 10.2969C9.53906 10.4141 9.6875 10.4922 9.86719 10.4922C10.2188 10.4922 10.4922 10.2109 10.4922 9.85938C10.4922 9.67969 10.4297 9.53906 10.3047 9.41406L8.08594 7.19531L10.3125 4.96094C10.4453 4.82812 10.5 4.69531 10.5 4.52344C10.5 4.17969 10.2266 3.89844 9.875 3.89844C9.71094 3.89844 9.57812 3.96094 9.44531 4.09375L7.19531 6.32031L4.96875 4.10156C4.85156 3.97656 4.71094 3.91406 4.53125 3.91406C4.1875 3.91406 3.90625 4.1875 3.90625 4.53125C3.90625 4.70312 3.97656 4.85156 4.09375 4.96875L6.3125 7.19531L4.09375 9.42188C3.97656 9.53906 3.90625 9.6875 3.90625 9.85938C3.90625 10.2109 4.1875 10.4922 4.53125 10.4922Z" fill="black" fill-opacity="0.85"/>
 </g>
</svg>
