<?xml version="1.0" encoding="UTF-8"?>
<!--Generator: Apple Native CoreSVG 326-->
<!DOCTYPE svg
PUBLIC "-//W3C//DTD SVG 1.1//EN"
       "http://www.w3.org/Graphics/SVG/1.1/DTD/svg11.dtd">
<svg version="1.1" xmlns="http://www.w3.org/2000/svg" xmlns:xlink="http://www.w3.org/1999/xlink" viewBox="0 0 21.7578 13.3984">
 <g>
  <rect height="13.3984" opacity="0" width="21.7578" x="0" y="0"/>
  <path d="M10.6797 13.3984C16.9922 13.3984 21.3516 8.29688 21.3516 6.70312C21.3516 5.10156 16.9844 0.0078125 10.6797 0.0078125C4.45312 0.0078125 0 5.10156 0 6.70312C0 8.29688 4.44531 13.3984 10.6797 13.3984ZM10.6797 12.1641C5.53125 12.1641 1.36719 7.80469 1.36719 6.70312C1.36719 5.77344 5.53125 1.24219 10.6797 1.24219C15.8047 1.24219 19.9844 5.77344 19.9844 6.70312C19.9844 7.80469 15.8047 12.1641 10.6797 12.1641ZM10.6797 11.0703C13.1016 11.0703 15.0625 9.10938 15.0625 6.6875C15.0625 4.26562 13.1016 2.30469 10.6797 2.30469C8.25781 2.30469 6.28906 4.26562 6.28906 6.6875C6.28906 9.10938 8.25781 11.0703 10.6797 11.0703ZM10.6797 8.14844C9.875 8.14844 9.22656 7.5 9.22656 6.69531C9.22656 5.89062 9.875 5.24219 10.6797 5.24219C11.4844 5.24219 12.1328 5.89062 12.1328 6.69531C12.1328 7.5 11.4844 8.14844 10.6797 8.14844Z" fill="black" fill-opacity="0.85"/>
 </g>
</svg>
