<?xml version="1.0" encoding="UTF-8"?>
<!--Generator: Apple Native CoreSVG 326-->
<!DOCTYPE svg
PUBLIC "-//W3C//DTD SVG 1.1//EN"
       "http://www.w3.org/Graphics/SVG/1.1/DTD/svg11.dtd">
<svg version="1.1" xmlns="http://www.w3.org/2000/svg" xmlns:xlink="http://www.w3.org/1999/xlink" viewBox="0 0 17.125 16.7109">
 <g>
  <rect height="16.7109" opacity="0" width="17.125" x="0" y="0"/>
  <path d="M7.57031 16.7031L9.14844 16.7031C9.75 16.7031 10.2188 16.3359 10.3516 15.7578L10.6875 14.2969L10.9375 14.2109L12.2109 14.9922C12.7188 15.3047 13.3047 15.2344 13.7344 14.8047L14.8281 13.7188C15.2578 13.2891 15.3281 12.6953 15.0156 12.1953L14.2188 10.9297L14.3125 10.6953L15.7734 10.3516C16.3438 10.2188 16.7188 9.74219 16.7188 9.14844L16.7188 7.60156C16.7188 7.00781 16.3516 6.53906 15.7734 6.39844L14.3281 6.04688L14.2266 5.79688L15.0234 4.53125C15.3359 4.03125 15.2734 3.44531 14.8359 3.00781L13.7422 1.91406C13.3203 1.49219 12.7344 1.41406 12.2266 1.72656L10.9531 2.50781L10.6875 2.40625L10.3516 0.945312C10.2188 0.367188 9.75 0 9.14844 0L7.57031 0C6.96875 0 6.5 0.367188 6.36719 0.945312L6.02344 2.40625L5.75781 2.50781L4.49219 1.72656C3.98438 1.41406 3.39062 1.49219 2.96875 1.91406L1.88281 3.00781C1.44531 3.44531 1.375 4.03125 1.69531 4.53125L2.48438 5.79688L2.39062 6.04688L0.945312 6.39844C0.367188 6.53906 0 7.00781 0 7.60156L0 9.14844C0 9.74219 0.375 10.2188 0.945312 10.3516L2.40625 10.6953L2.49219 10.9297L1.70312 12.1953C1.38281 12.6953 1.46094 13.2891 1.89062 13.7188L2.97656 14.8047C3.40625 15.2344 4 15.3047 4.50781 14.9922L5.77344 14.2109L6.02344 14.2969L6.36719 15.7578C6.5 16.3359 6.96875 16.7031 7.57031 16.7031ZM7.69531 15.4844C7.5625 15.4844 7.49219 15.4297 7.46875 15.3047L7 13.3672C6.52344 13.25 6.07812 13.0625 5.74219 12.8516L4.03906 13.8984C3.94531 13.9688 3.83594 13.9609 3.75 13.8594L2.82812 12.9375C2.74219 12.8516 2.73438 12.7578 2.79688 12.6484L3.84375 10.9609C3.66406 10.6328 3.46094 10.1875 3.33594 9.71094L1.39844 9.25C1.27344 9.22656 1.21875 9.15625 1.21875 9.02344L1.21875 7.71875C1.21875 7.57812 1.26562 7.51562 1.39844 7.49219L3.32812 7.02344C3.45312 6.51562 3.6875 6.05469 3.82812 5.76562L2.78906 4.07812C2.71875 3.96094 2.72656 3.86719 2.8125 3.77344L3.74219 2.86719C3.83594 2.77344 3.92188 2.76562 4.03906 2.82812L5.72656 3.85156C6.0625 3.66406 6.53906 3.46875 7.00781 3.33594L7.46875 1.39844C7.49219 1.27344 7.5625 1.21875 7.69531 1.21875L9.02344 1.21875C9.15625 1.21875 9.22656 1.27344 9.24219 1.39844L9.71875 3.35156C10.2031 3.47656 10.625 3.67188 10.9766 3.85938L12.6719 2.82812C12.7969 2.76562 12.875 2.77344 12.9766 2.86719L13.8984 3.77344C13.9922 3.86719 13.9922 3.96094 13.9219 4.07812L12.8828 5.76562C13.0312 6.05469 13.2578 6.51562 13.3828 7.02344L15.3203 7.49219C15.4453 7.51562 15.5 7.57812 15.5 7.71875L15.5 9.02344C15.5 9.15625 15.4375 9.22656 15.3203 9.25L13.375 9.71094C13.25 10.1875 13.0547 10.6328 12.8672 10.9609L13.9141 12.6484C13.9766 12.7578 13.9766 12.8516 13.8828 12.9375L12.9688 13.8594C12.875 13.9609 12.7734 13.9688 12.6719 13.8984L10.9688 12.8516C10.6328 13.0625 10.1953 13.25 9.71875 13.3672L9.24219 15.3047C9.22656 15.4297 9.15625 15.4844 9.02344 15.4844ZM8.35938 11.3281C10.0078 11.3281 11.3359 10 11.3359 8.35156C11.3359 6.70312 10.0078 5.375 8.35938 5.375C6.71094 5.375 5.38281 6.70312 5.38281 8.35156C5.38281 10 6.71094 11.3281 8.35938 11.3281ZM8.35938 10.1172C7.38281 10.1172 6.59375 9.32812 6.59375 8.35156C6.59375 7.375 7.38281 6.58594 8.35938 6.58594C9.33594 6.58594 10.125 7.375 10.125 8.35156C10.125 9.32812 9.33594 10.1172 8.35938 10.1172Z" fill="black" fill-opacity="0.85"/>
 </g>
</svg>
