<?xml version="1.0" encoding="UTF-8"?>
<!--Generator: Apple Native CoreSVG 326-->
<!DOCTYPE svg
PUBLIC "-//W3C//DTD SVG 1.1//EN"
       "http://www.w3.org/Graphics/SVG/1.1/DTD/svg11.dtd">
<svg version="1.1" xmlns="http://www.w3.org/2000/svg" xmlns:xlink="http://www.w3.org/1999/xlink" viewBox="0 0 18.8008 18.6433">
 <g>
  <rect height="18.6433" opacity="0" width="18.8008" x="0" y="0"/>
  <path d="M12.3301 3.91148L4.75195 3.91148C3.9707 3.91148 3.5332 4.33335 3.5332 5.14585L3.5332 14.013C3.5332 14.8255 3.9707 15.2396 4.75195 15.2396L13.6504 15.2396C14.4316 15.2396 14.8613 14.8255 14.8613 14.013L14.8613 6.50366L16.1191 5.24356L16.1191 14.0755C16.1191 15.6927 15.2988 16.4974 13.666 16.4974L4.72852 16.4974C3.10352 16.4974 2.27539 15.6927 2.27539 14.0755L2.27539 5.07554C2.27539 3.46617 3.10352 2.65367 4.72852 2.65367L13.5879 2.65367Z" fill="black" fill-opacity="0.85"/>
  <path d="M7.57227 11.4349L9.0957 10.7709L16.3926 3.48179L15.3223 2.4271L8.0332 9.71617L7.33008 11.1849C7.26758 11.3177 7.42383 11.4974 7.57227 11.4349ZM16.9707 2.91148L17.5332 2.33335C17.7988 2.0521 17.7988 1.6771 17.5332 1.41929L17.3535 1.23179C17.1113 0.989605 16.7285 1.02085 16.4707 1.27085L15.9004 1.83335Z" fill="black" fill-opacity="0.85"/>
 </g>
</svg>
