<?xml version="1.0" encoding="UTF-8"?>
<!--Generator: Apple Native CoreSVG 326-->
<!DOCTYPE svg
PUBLIC "-//W3C//DTD SVG 1.1//EN"
       "http://www.w3.org/Graphics/SVG/1.1/DTD/svg11.dtd">
<svg version="1.1" xmlns="http://www.w3.org/2000/svg" xmlns:xlink="http://www.w3.org/1999/xlink" viewBox="0 0 25.3809 18.3016">
 <g>
  <rect height="18.3016" opacity="0" width="25.3809" x="0" y="0"/>
  <path d="M16.0633 6.55313L3.06543 6.55313C2.417 6.55313 2.04981 6.92032 2.04981 7.56875L2.04981 14.1391C2.04981 14.7875 2.417 15.1547 3.06543 15.1547L18.4639 15.1547C19.1123 15.1547 19.4795 14.7875 19.4795 14.1391L19.4795 8.68322L20.7303 7.43121C20.7356 7.49532 20.7373 7.56252 20.7373 7.63125L20.7373 14.0766C20.7373 15.5531 19.9326 16.3266 18.4561 16.3266L3.08106 16.3266C1.6045 16.3266 0.791996 15.5531 0.791996 14.0766L0.791996 7.63125C0.791996 6.15469 1.6045 5.38125 3.08106 5.38125L17.2341 5.38125Z" fill="black" fill-opacity="0.85"/>
  <path d="M14.3389 11.2563L15.9248 10.5531L22.8076 3.67813L21.7139 2.59219L14.8389 9.46719L14.0889 11.0063C14.0264 11.1391 14.1826 11.3266 14.3389 11.2563ZM23.3857 3.09219L23.9717 2.49844C24.2529 2.20938 24.2529 1.82657 23.9795 1.56094L23.792 1.37344C23.542 1.12344 23.1514 1.14688 22.8857 1.4125L22.2998 1.99063Z" fill="black" fill-opacity="0.85"/>
  <path d="M11.6748 11.9672C12.292 11.9672 12.792 11.4672 12.792 10.85C12.792 10.2328 12.292 9.73282 11.6748 9.73282C11.0576 9.73282 10.5576 10.2328 10.5576 10.85C10.5576 11.4672 11.0576 11.9672 11.6748 11.9672Z" fill="black" fill-opacity="0.85"/>
  <path d="M8.30762 11.9672C8.92481 11.9672 9.42481 11.4672 9.42481 10.85C9.42481 10.2328 8.92481 9.73282 8.30762 9.73282C7.69043 9.73282 7.19043 10.2328 7.19043 10.85C7.19043 11.4672 7.69043 11.9672 8.30762 11.9672Z" fill="black" fill-opacity="0.85"/>
  <path d="M4.94043 11.9672C5.55762 11.9672 6.05762 11.4672 6.05762 10.85C6.05762 10.2328 5.55762 9.73282 4.94043 9.73282C4.32325 9.73282 3.82325 10.2328 3.82325 10.85C3.82325 11.4672 4.32325 11.9672 4.94043 11.9672Z" fill="black" fill-opacity="0.85"/>
 </g>
</svg>
