<?xml version="1.0" encoding="UTF-8"?>
<!--Generator: Apple Native CoreSVG 326-->
<!DOCTYPE svg
PUBLIC "-//W3C//DTD SVG 1.1//EN"
       "http://www.w3.org/Graphics/SVG/1.1/DTD/svg11.dtd">
<svg version="1.1" xmlns="http://www.w3.org/2000/svg" xmlns:xlink="http://www.w3.org/1999/xlink" viewBox="0 0 15.5312 18.7891">
 <g>
  <rect height="18.7891" opacity="0" width="15.5312" x="0" y="0"/>
  <path d="M5.25 14.8828C5.54688 14.8828 5.74219 14.6953 5.73438 14.4219L5.49219 6.0625C5.48438 5.78906 5.28906 5.60938 5.00781 5.60938C4.71094 5.60938 4.51562 5.79688 4.52344 6.07031L4.75781 14.4219C4.76562 14.7031 4.96094 14.8828 5.25 14.8828ZM7.5625 14.8828C7.85938 14.8828 8.07031 14.6953 8.07031 14.4219L8.07031 6.07031C8.07031 5.79688 7.85938 5.60938 7.5625 5.60938C7.26562 5.60938 7.0625 5.79688 7.0625 6.07031L7.0625 14.4219C7.0625 14.6953 7.26562 14.8828 7.5625 14.8828ZM9.88281 14.8828C10.1641 14.8828 10.3594 14.7031 10.3672 14.4219L10.6016 6.07031C10.6094 5.79688 10.4141 5.60938 10.1172 5.60938C9.83594 5.60938 9.64062 5.78906 9.63281 6.07031L9.39844 14.4219C9.39062 14.6953 9.58594 14.8828 9.88281 14.8828ZM4.13281 3.57031L5.375 3.57031L5.375 1.89844C5.375 1.45312 5.6875 1.16406 6.15625 1.16406L8.95312 1.16406C9.42188 1.16406 9.73438 1.45312 9.73438 1.89844L9.73438 3.57031L10.9766 3.57031L10.9766 1.82031C10.9766 0.6875 10.2422 0 9.03906 0L6.07031 0C4.86719 0 4.13281 0.6875 4.13281 1.82031ZM0.585938 4.19531L14.5469 4.19531C14.8672 4.19531 15.125 3.92188 15.125 3.60156C15.125 3.28125 14.8672 3.01562 14.5469 3.01562L0.585938 3.01562C0.273438 3.01562 0 3.28125 0 3.60156C0 3.92969 0.273438 4.19531 0.585938 4.19531ZM3.98438 17.3984L11.1484 17.3984C12.2656 17.3984 13.0156 16.6719 13.0703 15.5547L13.6172 4.04688L12.3594 4.04688L11.8359 15.4219C11.8203 15.8906 11.4844 16.2188 11.0234 16.2188L4.09375 16.2188C3.64844 16.2188 3.3125 15.8828 3.28906 15.4219L2.73438 4.04688L1.50781 4.04688L2.0625 15.5625C2.11719 16.6797 2.85156 17.3984 3.98438 17.3984Z" fill="black" fill-opacity="0.85"/>
 </g>
</svg>
