<?xml version="1.0" encoding="UTF-8"?>
<!--Generator: Apple Native CoreSVG 326-->
<!DOCTYPE svg
PUBLIC "-//W3C//DTD SVG 1.1//EN"
       "http://www.w3.org/Graphics/SVG/1.1/DTD/svg11.dtd">
<svg version="1.1" xmlns="http://www.w3.org/2000/svg" xmlns:xlink="http://www.w3.org/1999/xlink" viewBox="0 0 14.0547 14.4766">
 <g>
  <rect height="14.4766" opacity="0" width="14.0547" x="0" y="0"/>
  <path d="M1.91406 14.4688L11.7344 14.4688C13.0312 14.4688 13.6484 14.0781 13.6484 13.2188C13.6484 11.1719 11.0625 8.21094 6.82812 8.21094C2.58594 8.21094 0 11.1719 0 13.2188C0 14.0781 0.617188 14.4688 1.91406 14.4688ZM1.54688 13.2891C1.34375 13.2891 1.25781 13.2344 1.25781 13.0703C1.25781 11.7812 3.24219 9.39062 6.82812 9.39062C10.4062 9.39062 12.3906 11.7812 12.3906 13.0703C12.3906 13.2344 12.3125 13.2891 12.1094 13.2891ZM6.82812 7.23438C8.6875 7.23438 10.2031 5.58594 10.2031 3.57031C10.2031 1.57031 8.69531 0 6.82812 0C4.97656 0 3.45312 1.60156 3.45312 3.58594C3.45312 5.59375 4.96875 7.23438 6.82812 7.23438ZM6.82812 6.05469C5.6875 6.05469 4.71094 4.96875 4.71094 3.58594C4.71094 2.22656 5.67188 1.17969 6.82812 1.17969C7.99219 1.17969 8.94531 2.20312 8.94531 3.57031C8.94531 4.95312 7.97656 6.05469 6.82812 6.05469Z" fill="black" fill-opacity="0.85"/>
 </g>
</svg>
